<?xml version="1.0" encoding="utf-8"?>
<!-- Generator: Adobe Illustrator 19.2.1, SVG Export Plug-In . SVG Version: 6.00 Build 0)  -->
<svg version="1.1" id="Symbol" xmlns="http://www.w3.org/2000/svg" xmlns:xlink="http://www.w3.org/1999/xlink" x="0px" y="0px"
	 viewBox="0 0 310 73" style="enable-background:new 0 0 310 73;" xml:space="preserve">
<style type="text/css">
	.logo-type{
		fill: currentColor;
	}
	.st1{fill:url(#SVGID_1_);}
	.st2{fill:url(#SVGID_2_);}
	.st3{fill:url(#SVGID_3_);}
	.st4{fill:url(#SVGID_4_);}
	.st5{fill:url(#SVGID_5_);}
	.st6{fill:url(#SVGID_6_);}
	.st7{fill:url(#SVGID_7_);}
</style>
<g>
	<g class="logo-type">
		<path class="st0" d="M0,69.6L2.2,67c2,1.7,4,2.7,6.6,2.7c2.3,0,3.7-1.1,3.7-2.6V67c0-1.5-0.8-2.3-4.7-3.2c-4.5-1.1-7-2.4-7-6.3
			v-0.1c0-3.6,3-6.1,7.2-6.1c3.1,0,5.5,0.9,7.6,2.6l-2,2.8c-1.9-1.4-3.8-2.2-5.7-2.2c-2.2,0-3.4,1.1-3.4,2.5v0.1c0,1.6,1,2.3,5,3.3
			c4.4,1.1,6.7,2.7,6.7,6.2v0.1c0,3.9-3.1,6.3-7.5,6.3C5.5,73,2.5,71.8,0,69.6z"/>
		<path class="st0" d="M20.6,51.7h8.3c4.9,0,8,2.8,8,7v0.1c0,4.7-3.8,7.2-8.4,7.2h-4.2v6.8h-3.7V51.7z M28.6,62.6
			c2.8,0,4.5-1.6,4.5-3.7v-0.1c0-2.5-1.8-3.8-4.5-3.8h-4.3v7.6H28.6z"/>
		<path class="st0" d="M46.1,51.5h3.4l9.2,21.1h-3.9l-2.1-5.1h-9.9l-2.2,5.1h-3.8L46.1,51.5z M51.4,64.3l-3.6-8.4l-3.6,8.4H51.4z"/>
		<path class="st0" d="M62.1,51.7h9.4c2.6,0,4.7,0.8,6.1,2.1c1.1,1.1,1.7,2.7,1.7,4.5v0.1c0,3.5-2.1,5.5-5,6.4l5.7,7.9h-4.4
			l-5.2-7.3h-4.6v7.3h-3.7V51.7z M71.2,62.1c2.6,0,4.3-1.4,4.3-3.5v-0.1c0-2.2-1.6-3.5-4.3-3.5h-5.4v7H71.2z"/>
		<path class="st0" d="M83.9,51.7h15.6V55H87.5v5.5h10.5v3.3H87.5v5.6h12v3.3H83.9V51.7z"/>
		<path class="st0" d="M104,51.7h9.4c2.4,0,4.3,0.7,5.5,1.9c0.9,0.9,1.4,2.1,1.4,3.5v0.1c0,2.5-1.4,3.9-3,4.7
			c2.5,0.8,4.2,2.2,4.2,5.1v0.1c0,3.8-3.1,5.8-7.8,5.8H104V51.7z M116.7,57.6c0-1.6-1.3-2.7-3.7-2.7h-5.3v5.6h5
			C115.1,60.5,116.7,59.6,116.7,57.6L116.7,57.6z M113.5,63.6h-5.8v5.8h6.1c2.5,0,4-1,4-2.9v-0.1C117.8,64.7,116.4,63.6,113.5,63.6z
			"/>
		<path class="st0" d="M132.6,51.5h3.4l9.2,21.1h-3.9l-2.1-5.1h-9.9l-2.2,5.1h-3.8L132.6,51.5z M137.9,64.3l-3.6-8.4l-3.6,8.4H137.9
			z"/>
		<path class="st0" d="M148.7,51.7h3.4l11.2,14.5V51.7h3.6v21h-3.1l-11.6-14.9v14.9h-3.6V51.7z"/>
		<path class="st0" d="M172.5,51.7h3.7v10.6l10-10.6h4.6l-8.8,9l9.1,12h-4.5l-7.2-9.4l-3.3,3.4v6.1h-3.7V51.7z"/>
		<path class="st0" d="M194.3,51.7h15.6V55H198v5.5h10.5v3.3H198v5.6h12v3.3h-15.7V51.7z"/>
		<path class="st0" d="M214.5,51.7h3.4l11.2,14.5V51.7h3.6v21h-3.1l-11.6-14.9v14.9h-3.6V51.7z"/>
		<path class="st0" d="M245.8,69.6L248,67c2,1.7,4,2.7,6.6,2.7c2.3,0,3.7-1.1,3.7-2.6V67c0-1.5-0.8-2.3-4.7-3.2
			c-4.5-1.1-7-2.4-7-6.3v-0.1c0-3.6,3-6.1,7.2-6.1c3.1,0,5.5,0.9,7.6,2.6l-2,2.8c-1.9-1.4-3.8-2.2-5.7-2.2c-2.2,0-3.4,1.1-3.4,2.5
			v0.1c0,1.6,1,2.3,5,3.3c4.4,1.1,6.7,2.7,6.7,6.2v0.1c0,3.9-3.1,6.3-7.5,6.3C251.3,73,248.3,71.8,245.8,69.6z"/>
		<path class="st0" d="M291.7,51.7h9.4c2.6,0,4.7,0.8,6.1,2.1c1.1,1.1,1.7,2.7,1.7,4.5v0.1c0,3.5-2.1,5.5-5,6.4l5.7,7.9h-4.4
			l-5.2-7.3h-4.6v7.3h-3.7V51.7z M300.8,62.1c2.6,0,4.3-1.4,4.3-3.5v-0.1c0-2.2-1.6-3.5-4.3-3.5h-5.4v7H300.8z"/>
	</g>
	<path class="st0" d="M285.1,55.6l2-2l-2.4-2.4l-2,2c-1.8-1.2-4-2-6.5-2c-6.5,0-11,4.9-11,10.9v0.1c0,2.4,0.8,4.6,2.1,6.5l-2,2
		l2.4,2.4l2-2c1.8,1.2,4,2,6.5,2c6.5,0,11-5,11-10.9v-0.1C287.2,59.7,286.5,57.4,285.1,55.6z M269.1,62.2L269.1,62.2
		c0-4.1,2.9-7.5,7.1-7.5c1.5,0,2.8,0.4,3.9,1.2L270,65.9C269.4,64.8,269.1,63.5,269.1,62.2z M283.3,62.2c0,4.1-2.9,7.4-7.1,7.4
		c-1.5,0-2.8-0.4-3.9-1.2l10.1-10.1C283,59.5,283.3,60.8,283.3,62.2L283.3,62.2z"/>
	
	<g class="logo-element">
		
		<linearGradient id="SVGID_1_" gradientUnits="userSpaceOnUse" x1="-1.3201" y1="291.6978" x2="-1.3201" y2="249.7136" gradientTransform="matrix(-0.5 0.866 -0.866 -0.5 445.1066 152.1072)">
			<stop  offset="0" style="stop-color:#783CBE"/>
			<stop  offset="0.5" style="stop-color:#E14706"/>
			<stop  offset="1" style="stop-color:#F5AA00"/>
		</linearGradient>
		<path class="st1" d="M193.4,12.8l40.7,10.9c0.3-0.6,0.6-1.3,0.9-1.9L190.5,9.8L193.4,12.8z"/>
		
		<linearGradient id="SVGID_2_" gradientUnits="userSpaceOnUse" x1="2.3327" y1="291.6976" x2="2.3327" y2="249.7136" gradientTransform="matrix(-0.5 0.866 -0.866 -0.5 445.1066 152.1072)">
			<stop  offset="0" style="stop-color:#783CBE"/>
			<stop  offset="0.5" style="stop-color:#E14706"/>
			<stop  offset="1" style="stop-color:#F5AA00"/>
		</linearGradient>
		<path class="st2" d="M200.5,19.9l31.2,8.4c0,0,0-0.1,0.1-0.1c0.4-0.7,0.8-1.4,1.2-2.1l-35.9-9.6L200.5,19.9z"/>
		
		<linearGradient id="SVGID_3_" gradientUnits="userSpaceOnUse" x1="6.032" y1="291.6977" x2="6.032" y2="249.7134" gradientTransform="matrix(-0.5 0.866 -0.866 -0.5 445.1066 152.1072)">
			<stop  offset="0" style="stop-color:#783CBE"/>
			<stop  offset="0.5" style="stop-color:#E14706"/>
			<stop  offset="1" style="stop-color:#F5AA00"/>
		</linearGradient>
		<path class="st3" d="M207.6,27l21.3,5.7c0.6-0.8,1.1-1.6,1.6-2.5L203.6,23L207.6,27z"/>
		
		<linearGradient id="SVGID_4_" gradientUnits="userSpaceOnUse" x1="9.7822" y1="291.6979" x2="9.7822" y2="249.7137" gradientTransform="matrix(-0.5 0.866 -0.866 -0.5 445.1066 152.1072)">
			<stop  offset="0" style="stop-color:#783CBE"/>
			<stop  offset="0.5" style="stop-color:#E14706"/>
			<stop  offset="1" style="stop-color:#F5AA00"/>
		</linearGradient>
		<path class="st4" d="M214.7,34.1l10.9,2.9c0.7-0.9,1.5-1.8,2.2-2.7l-17.6-4.7L214.7,34.1z"/>
		
		<linearGradient id="SVGID_5_" gradientUnits="userSpaceOnUse" x1="13.5839" y1="291.7006" x2="13.5839" y2="249.7128" gradientTransform="matrix(-0.5 0.866 -0.866 -0.5 445.1066 152.1072)">
			<stop  offset="0" style="stop-color:#783CBE"/>
			<stop  offset="0.5" style="stop-color:#E14706"/>
			<stop  offset="1" style="stop-color:#F5AA00"/>
		</linearGradient>
		<path class="st5" d="M221.8,41.1c1-1,1.9-1.9,2.8-3l-7.8-2.1L221.8,41.1z"/>
		
		<linearGradient id="SVGID_6_" gradientUnits="userSpaceOnUse" x1="-9.789" y1="291.6986" x2="-9.789" y2="249.7135" gradientTransform="matrix(-0.5 0.866 -0.866 -0.5 445.1066 152.1072)">
			<stop  offset="0" style="stop-color:#783CBE"/>
			<stop  offset="0.5" style="stop-color:#E14706"/>
			<stop  offset="1" style="stop-color:#F5AA00"/>
		</linearGradient>
		<path class="st6" d="M237.7,14.2c0.1-0.4,0.2-0.8,0.3-1.2L189.6,0l-0.7,1.2L237.7,14.2z"/>
		
		<linearGradient id="SVGID_7_" gradientUnits="userSpaceOnUse" x1="-4.9274" y1="291.6984" x2="-4.9274" y2="249.7135" gradientTransform="matrix(-0.5 0.866 -0.866 -0.5 445.1066 152.1072)">
			<stop  offset="0" style="stop-color:#783CBE"/>
			<stop  offset="0.5" style="stop-color:#E14706"/>
			<stop  offset="1" style="stop-color:#F5AA00"/>
		</linearGradient>
		<path class="st7" d="M236.1,19c0.2-0.5,0.4-1,0.6-1.6L187.2,4.2l-0.9,1.5L236.1,19z"/>
	</g>
</g>
</svg>
